<svg xmlns="http://www.w3.org/2000/svg" viewBox="0 0 841.9 595.3">
   <g transform="translate(0.000000,196.000000) scale(0.100000,-0.100000)"
fill="#000000" stroke="none">
<path d="M360 1315 c0 -73 1 -75 25 -75 l25 0 0 -260 0 -260 -25 0 c-24 0 -25
-2 -25 -75 l0 -75 125 0 125 0 2 173 3 172 53 -102 c48 -95 52 -108 52 -173
l0 -70 130 0 130 0 0 75 c0 67 -2 75 -19 75 -15 0 -39 36 -98 147 -43 81 -77
152 -75 157 2 5 35 56 74 113 56 81 76 103 95 103 22 0 23 3 23 75 l0 75 -135
0 -135 0 0 -75 c0 -60 3 -75 15 -75 8 0 15 -4 15 -10 0 -5 -28 -60 -62 -122
l-63 -113 -3 198 -2 197 -125 0 -125 0 0 -75z"/>
<path d="M1017 1383 c-4 -3 -7 -37 -7 -75 l0 -68 30 0 30 0 0 -260 0 -260 -25
0 c-24 0 -25 -2 -25 -75 l0 -75 290 0 290 0 0 155 0 156 -56 -3 -56 -3 -27
-75 -27 -75 -82 -3 -82 -3 0 261 0 260 30 0 30 0 0 75 0 75 -153 0 c-85 0
-157 -3 -160 -7z"/>
</g>
</svg>
